Coordinates
version=1
nRows=54
nColumns=12
inDegrees=yes

Units are S.I. units (second, meters, Newtons, ...)
Angles are in degrees

endheader
time	SC_y	SC_z	SC_x	AC_y	AC_z	AC_x	GH_y	GH_z	GH_yy	EL_x	PS_y
       0.0              -54.29          24.81          16.69          46.45         -4.386         -5.909          17.96          45.42         -150.7          63.42          53.51
    0.0014              -54.28          24.81          16.69          46.45         -4.386         -5.907          17.95          45.42         -150.7          63.42          53.52
  0.002799              -54.28          24.81           16.7          46.45         -4.385         -5.904          17.94          45.41         -150.7          63.42          53.53
  0.004199              -54.28          24.82           16.7          46.45         -4.385           -5.9          17.92           45.4         -150.7          63.42          53.55
  0.005599              -54.28          24.82          16.71          46.46         -4.384         -5.897          17.91          45.39         -150.7          63.42          53.56
  0.006999              -54.27          24.82          16.71          46.46         -4.384         -5.893          17.89          45.39         -150.6          63.42          53.57
  0.008398              -54.27          24.82          16.72          46.46         -4.383         -5.889          17.87          45.38         -150.6          63.42          53.59
  0.009798              -54.27          24.82          16.72          46.47         -4.383         -5.885          17.85          45.37         -150.6          63.42           53.6
    0.0112              -54.26          24.83          16.73          46.47         -4.382          -5.88          17.83          45.36         -150.6          63.42          53.62
    0.0126              -54.26          24.83          16.74          46.48         -4.381         -5.876          17.81          45.35         -150.6          63.42          53.64
     0.014              -54.25          24.83          16.74          46.48         -4.381          -5.87          17.79          45.34         -150.5          63.41          53.66
    0.0154              -54.25          24.83          16.75          46.49          -4.38         -5.865          17.76          45.32         -150.5          63.41          53.68
    0.0168              -54.25          24.84          16.76          46.49         -4.379         -5.859          17.73          45.31         -150.5          63.41           53.7
    0.0182              -54.24          24.84          16.77           46.5         -4.378         -5.852           17.7           45.3         -150.4          63.41          53.72
    0.0196              -54.23          24.84          16.78          46.51         -4.377         -5.845          17.67          45.28         -150.4          63.41          53.75
     0.021              -54.23          24.85          16.79          46.51         -4.376         -5.837          17.64          45.26         -150.4          63.41          53.78
    0.0224              -54.22          24.85           16.8          46.52         -4.375         -5.829           17.6          45.25         -150.3           63.4          53.81
    0.0238              -54.21          24.86          16.81          46.53         -4.374          -5.82          17.56          45.23         -150.3           63.4          53.84
   0.02519              -54.21          24.86          16.82          46.54         -4.372          -5.81          17.51           45.2         -150.2           63.4          53.88
   0.02659               -54.2          24.87          16.84          46.55         -4.371         -5.799          17.47          45.18         -150.2           63.4          53.92
   0.02799              -54.19          24.87          16.85          46.56         -4.369         -5.787          17.41          45.15         -150.1          63.39          53.97
   0.02939              -54.18          24.88          16.87          46.57         -4.367         -5.774          17.35          45.12         -150.0          63.39          54.01
   0.03079              -54.17          24.89          16.89          46.58         -4.365          -5.76          17.29          45.09         -150.0          63.39          54.07
   0.03219              -54.15           24.9          16.91           46.6         -4.363         -5.744          17.21          45.06         -149.9          63.38          54.13
   0.03359              -54.14          24.91          16.94          46.61          -4.36         -5.726          17.13          45.02         -149.8          63.38           54.2
   0.03499              -54.12          24.92          16.96          46.63         -4.357         -5.706          17.04          44.97         -149.7          63.37          54.27
   0.03639              -54.11          24.93          16.99          46.65         -4.354         -5.684          16.94          44.93         -149.6          63.37          54.35
   0.03779              -54.09          24.94          17.03          46.68         -4.351         -5.659          16.83          44.87         -149.5          63.36          54.45
   0.03919              -54.06          24.96          17.06           46.7         -4.347          -5.63           16.7          44.81         -149.3          63.35          54.55
   0.04059              -54.04          24.97          17.11          46.73         -4.342         -5.598          16.55          44.74         -149.1          63.34          54.67
   0.04199              -54.01          24.99          17.16          46.76         -4.337         -5.561          16.39          44.66         -149.0          63.34          54.81
   0.04339              -53.98          25.01          17.21           46.8         -4.331         -5.519           16.2          44.56         -148.7          63.32          54.97
   0.04479              -53.94          25.04          17.28          46.85         -4.324          -5.47          15.98          44.46         -148.5          63.31          55.15
   0.04619              -53.89          25.07          17.35           46.9         -4.316         -5.414          15.72          44.33         -148.2           63.3          55.36
   0.04759              -53.84           25.1          17.44          46.96         -4.306         -5.348          15.42          44.19         -147.9          63.28           55.6
   0.04899              -53.78          25.14          17.55          47.03         -4.295          -5.27          15.07          44.01         -147.5          63.26          55.89
   0.05039               -53.7          25.19          17.67          47.12         -4.282         -5.177          14.65          43.81         -147.0          63.24          56.24
   0.05179              -53.62          25.25          17.82          47.22         -4.266         -5.066          14.15          43.57         -146.4          63.21          56.65
   0.05319              -53.51          25.32           18.0          47.34         -4.247         -4.931          13.54          43.27         -145.8          63.17          57.15
   0.05459              -53.38           25.4          18.22          47.49         -4.224         -4.767          12.79          42.91         -144.9          63.13          57.77
   0.05599              -53.22           25.5          18.49          47.67         -4.195         -4.564          11.88          42.46         -143.9          63.08          58.52
   0.05739              -53.02          25.63          18.83          47.91         -4.159         -4.312          10.73          41.91         -142.6          63.01          59.46
   0.05879              -52.77           25.8          19.25           48.2         -4.114         -3.993          9.292           41.2         -141.0          62.93          60.65
   0.06019              -52.44          26.01          19.79          48.57         -4.056         -3.588           7.46          40.31         -138.9          62.83          62.16
   0.06159              -52.03          26.27          20.49          49.04         -3.982          -3.07          5.115          39.17         -136.3           62.7          64.09
   0.06299              -51.51          26.62          21.38          49.65         -3.888         -2.405          2.106          37.71         -132.9          62.53          66.57
   0.06439              -50.83          27.05          22.51          50.42         -3.767         -1.556         -1.737          35.84         -128.6          62.31          69.73
   0.06579              -49.98          27.61          23.94           51.4         -3.615        -0.4881          -6.57          33.49         -123.2          62.03          73.71
   0.06719              -48.95          28.28          25.68          52.58          -3.43         0.8133         -12.46          30.62         -116.6           61.7          78.56
   0.06859              -47.76          29.05           27.7          53.96         -3.215          2.322         -19.29           27.3         -109.0          61.31          84.18
   0.06999              -46.46          29.89          29.88          55.45         -2.983          3.955         -26.68          23.71         -100.7          60.89          90.26
   0.07139              -45.16          30.74          32.07          56.94         -2.751          5.589         -34.07          20.11         -92.39          60.47          96.34
   0.07278              -43.97          31.51          34.09          58.32         -2.536          7.097          -40.9          16.79         -84.74          60.09          102.0
   0.07418              -42.93          32.18          35.83          59.51         -2.351          8.398         -46.79          13.93         -78.13          59.75          106.8
